<svg xmlns="http://www.w3.org/2000/svg" width="30" height="31" viewBox="0 0 30 31" fill="none">
<path d="M18.75 12.9999L13.75 17.9999L11.25 15.4999M16.5576 4.82337L18.0838 6.12399C18.4683 6.45166 18.9461 6.64973 19.4497 6.68991L21.4483 6.84949C22.6235 6.94327 23.5573 7.87639 23.6511 9.05155L23.8094 11.0504C23.8496 11.554 24.048 12.0321 24.3757 12.4166L25.6768 13.9428C26.4415 14.8401 26.4409 16.1598 25.6763 17.0571L24.3762 18.5833C24.0486 18.9678 23.85 19.4459 23.8098 19.9495L23.6499 21.9483C23.5561 23.1234 22.6241 24.0566 21.449 24.1504L19.4495 24.31C18.9459 24.3502 18.468 24.5481 18.0835 24.8758L16.5576 26.1765C15.6603 26.9411 14.3397 26.9412 13.4424 26.1765L11.9165 24.8759C11.532 24.5482 11.0541 24.3501 10.5505 24.3099L8.55103 24.1505C7.37586 24.0567 6.44388 23.1235 6.3501 21.9483L6.19019 19.9494C6.15 19.4458 5.95145 18.9678 5.62378 18.5833L4.32373 17.0571C3.55908 16.1598 3.55884 14.8401 4.32349 13.9428L5.62435 12.4166C5.95203 12.0321 6.14948 11.5541 6.18967 11.0505L6.3497 9.05158C6.44348 7.87642 7.37706 6.94321 8.55222 6.84943L10.5499 6.68998C11.0535 6.64979 11.5322 6.4517 11.9167 6.12403L13.4427 4.82337C14.34 4.05871 15.6603 4.05871 16.5576 4.82337Z" stroke="#000" stroke-width="2" stroke-linecap="round" stroke-linejoin="round"/>
</svg>