<svg xmlns="http://www.w3.org/2000/svg" width="20" height="20" viewBox="0 0 20 20" fill="none">
  <path d="M2 8.00023L10.2286 14.0002L17.9999 8.00023M4.2002 19.0002H15.8002C16.9203 19.0002 17.48 19.0002 17.9078 18.7822C18.2841 18.5905 18.5905 18.2845 18.7822 17.9081C19.0002 17.4803 19 16.9204 19 15.8002V9.53746C19 8.97295 19 8.69066 18.9282 8.43004C18.8646 8.19915 18.7599 7.98151 18.6194 7.78757C18.4608 7.56866 18.2409 7.3922 17.8002 7.03937L12.2012 2.5565C11.506 1.99989 11.1581 1.72167 10.7715 1.61119C10.4304 1.51371 10.0697 1.50867 9.72602 1.59666C9.33653 1.6964 8.98136 1.96503 8.27101 2.50218L2.27002 7.03997C1.80429 7.39214 1.57123 7.56816 1.40332 7.79072C1.2546 7.98784 1.14377 8.21083 1.07624 8.44835C1 8.71651 1 9.00838 1 9.59227V15.8001C1 16.9202 1 17.4803 1.21799 17.9081C1.40973 18.2845 1.71547 18.5905 2.0918 18.7822C2.51962 19.0002 3.08009 19.0002 4.2002 19.0002Z" stroke="#000" stroke-width="2" stroke-linecap="round" stroke-linejoin="round"/>
</svg>