<svg width="161" height="40" viewBox="0 0 161 40" fill="none" xmlns="http://www.w3.org/2000/svg">
<g clip-path="url(#clip0_6001_797)">
<path d="M0.156975 39.5573V23.3526H2.12923V29.1684C3.05095 28.0922 4.21015 27.552 5.61487 27.552C6.47623 27.552 7.22488 27.7226 7.86083 28.0678C8.49678 28.409 8.9516 28.8841 9.2253 29.4893C9.499 30.0944 9.63585 30.9716 9.63585 32.121V39.5614H7.6636V32.121C7.6636 31.126 7.45028 30.4031 7.02363 29.9482C6.59698 29.4933 5.99323 29.27 5.21238 29.27C4.62875 29.27 4.07733 29.4243 3.56213 29.7289C3.04693 30.0335 2.68065 30.4477 2.45928 30.9716C2.2379 31.4956 2.12923 32.2185 2.12923 33.1363V39.5573H0.156975Z" fill="#FAF6EF"/>
<path d="M11.8979 33.6847C11.8979 31.5119 12.4976 29.8995 13.6931 28.8558C14.6953 27.9866 15.9149 27.5521 17.3518 27.5521C18.9497 27.5521 20.2578 28.08 21.2721 29.14C22.2864 30.196 22.7936 31.6581 22.7936 33.5222C22.7936 35.033 22.5682 36.223 22.1214 37.0881C21.6706 37.9531 21.0186 38.6273 20.1612 39.1065C19.3039 39.5858 18.3661 39.8254 17.3518 39.8254C15.7217 39.8254 14.4055 39.2974 13.4033 38.2455C12.401 37.1937 11.8979 35.6747 11.8979 33.6928M13.9265 33.6847C13.9265 35.1874 14.2525 36.3164 14.9006 37.0637C15.5486 37.811 16.3697 38.1846 17.3558 38.1846C18.3419 38.1846 19.1469 37.8069 19.799 37.0556C20.451 36.3042 20.773 35.1589 20.773 33.6156C20.773 32.1657 20.447 31.0651 19.795 30.3178C19.1429 29.5705 18.3299 29.1969 17.3558 29.1969C16.3818 29.1969 15.5526 29.5705 14.9006 30.3138C14.2485 31.057 13.9265 32.182 13.9265 33.6847Z" fill="#FAF6EF"/>
<path d="M25.112 39.5573V27.816H26.8749V29.465C27.2412 28.8923 27.7242 28.4293 28.332 28.076C28.9397 27.7267 29.628 27.5521 30.4008 27.5521C31.2622 27.5521 31.9706 27.7348 32.522 28.0922C33.0734 28.4537 33.4638 28.9573 33.6892 29.6071C34.611 28.2344 35.8064 27.5521 37.2836 27.5521C38.4387 27.5521 39.3242 27.8729 39.9441 28.5187C40.5639 29.1644 40.8739 30.1554 40.8739 31.4997V39.5573H38.9137V32.1617C38.9137 31.3657 38.8493 30.793 38.7205 30.4437C38.5917 30.0945 38.3623 29.8102 38.0242 29.599C37.6901 29.3837 37.2956 29.2781 36.8408 29.2781C36.0237 29.2781 35.3435 29.5543 34.8042 30.1026C34.2648 30.6509 33.9951 31.5322 33.9951 32.7384V39.5573H32.0229V31.9302C32.0229 31.0448 31.8619 30.3828 31.5399 29.9401C31.2179 29.4974 30.6906 29.2781 29.9621 29.2781C29.4066 29.2781 28.8955 29.4243 28.4245 29.7208C27.9536 30.0173 27.6115 30.4478 27.4022 31.0123C27.1889 31.5809 27.0842 32.3972 27.0842 33.4654V39.5573H25.112Z" fill="#FAF6EF"/>
<path d="M51.7695 35.7762L53.8062 36.0321C53.4842 37.2343 52.8885 38.1643 52.0191 38.8304C51.1497 39.4924 50.0388 39.8254 48.6904 39.8254C46.9878 39.8254 45.6395 39.2974 44.6413 38.2374C43.6431 37.1815 43.148 35.695 43.148 33.7862C43.148 31.8774 43.6511 30.2772 44.6614 29.1888C45.6676 28.0963 46.9758 27.5521 48.5817 27.5521C50.1877 27.5521 51.4073 28.0882 52.3934 29.1563C53.3795 30.2244 53.8706 31.7271 53.8706 33.6644C53.8706 33.7821 53.8706 33.9608 53.8585 34.1964H45.1806C45.2531 35.4879 45.6153 36.4748 46.2674 37.1612C46.9154 37.8475 47.7284 38.1887 48.6985 38.1887C49.423 38.1887 50.0388 37.9978 50.55 37.612C51.0611 37.2261 51.4677 36.6169 51.7655 35.7762M45.2933 32.5597H51.7897C51.7011 31.5728 51.4556 30.8296 51.045 30.3381C50.4171 29.5705 49.6041 29.1888 48.6019 29.1888C47.6962 29.1888 46.9355 29.4934 46.3157 30.1066C45.6998 30.7199 45.3577 31.5362 45.2933 32.5597Z" fill="#FAF6EF"/>
<path d="M57.2315 39.5573V19.9777H60.1898V22.9465C60.9465 21.5575 61.6429 20.6397 62.2829 20.197C62.9228 19.7543 63.6272 19.535 64.3919 19.535C65.4988 19.535 66.6258 19.8924 67.7729 20.6031L66.6419 23.6816C65.8369 23.2024 65.0359 22.9627 64.2309 22.9627C63.5105 22.9627 62.8665 23.182 62.2949 23.6166C61.7234 24.0512 61.3128 24.6563 61.0713 25.432C60.705 26.6139 60.5239 27.9013 60.5239 29.3025V39.5532H57.2355L57.2315 39.5573Z" fill="#F89E1F"/>
<path d="M83.0156 33.2501L86.4127 33.6725C85.8774 35.6747 84.8832 37.2302 83.4342 38.3389C81.9852 39.4436 80.1337 40 77.8797 40C75.0421 40 72.7921 39.1187 71.1298 37.3561C69.4675 35.5935 68.6343 33.1201 68.6343 29.9361C68.6343 26.752 69.4755 24.0877 71.158 22.2683C72.8404 20.4488 75.018 19.5391 77.6986 19.5391C80.3793 19.5391 82.4119 20.4285 84.0581 22.2114C85.7003 23.9943 86.5254 26.5002 86.5254 29.733C86.5254 29.9279 86.5174 30.2244 86.5053 30.6184H72.0354C72.1562 32.7709 72.7599 34.4157 73.8427 35.561C74.9254 36.7022 76.2778 37.2749 77.8999 37.2749C79.1074 37.2749 80.1337 36.954 80.987 36.3164C81.8403 35.6788 82.5165 34.6594 83.0156 33.2542M72.2166 27.8851H83.0519C82.907 26.2403 82.4924 25.0015 81.8081 24.1812C80.7616 22.9018 79.4012 22.2642 77.7348 22.2642C76.2255 22.2642 74.9536 22.7759 73.9272 23.7953C72.8968 24.8147 72.3293 26.1793 72.2206 27.8891" fill="#F89E1F"/>
<path d="M94.1246 39.5573L88.1877 19.9777H91.5848L94.672 31.2803L95.8232 35.4838C95.8715 35.2767 96.2055 33.9283 96.8294 31.4468L99.9166 19.9777H103.298L106.204 31.3331L107.174 35.0777L108.289 31.2966L111.613 19.9777H114.809L108.743 39.5573H105.326L102.239 27.8323L101.49 24.4939L97.562 39.5573H94.1286H94.1246Z" fill="#F89E1F"/>
<path d="M117.586 12.5292H120.875V16.3468H117.586V12.5292ZM117.586 19.9776H120.875V39.5573H117.586V19.9776Z" fill="#F89E1F"/>
<path d="M125.846 39.5573V19.9777H128.804V22.9465C129.561 21.5575 130.257 20.6397 130.897 20.197C131.537 19.7543 132.241 19.535 133.006 19.535C134.113 19.535 135.24 19.8924 136.387 20.6031L135.252 23.6816C134.447 23.2024 133.646 22.9627 132.841 22.9627C132.121 22.9627 131.477 23.182 130.905 23.6166C130.334 24.0512 129.923 24.6563 129.681 25.432C129.315 26.6139 129.134 27.9013 129.134 29.3025V39.5532H125.846V39.5573Z" fill="#F89E1F"/>
<path d="M151.626 33.2501L155.023 33.6725C154.488 35.6747 153.493 37.2302 152.044 38.3389C150.595 39.4436 148.744 40 146.49 40C143.652 40 141.402 39.1187 139.74 37.3561C138.078 35.5935 137.244 33.1201 137.244 29.9361C137.244 26.752 138.086 24.0877 139.764 22.2683C141.447 20.4488 143.624 19.5391 146.305 19.5391C148.985 19.5391 151.018 20.4285 152.664 22.2114C154.31 23.9943 155.132 26.5002 155.132 29.733C155.132 29.9279 155.124 30.2244 155.111 30.6184H140.642C140.762 32.7709 141.366 34.4157 142.453 35.561C143.536 36.7022 144.888 37.2749 146.51 37.2749C147.718 37.2749 148.744 36.954 149.597 36.3164C150.45 35.6788 151.127 34.6594 151.626 33.2542M140.827 27.8851H151.662C151.517 26.2403 151.103 25.0015 150.418 24.1812C149.372 22.9018 148.011 22.2642 146.345 22.2642C144.836 22.2642 143.564 22.7759 142.537 23.7953C141.507 24.8147 140.939 26.1793 140.831 27.8891" fill="#F89E1F"/>
<path d="M26.7662 4.77611L48.2034 24.8553L50.4775 22.382L26.5932 0.00811768L4.41945 24.108L6.86665 26.4027L26.7662 4.77611Z" fill="#FAF6EF"/>
<path d="M22.1938 17.2972L27.853 8.59784L25.8324 15.7661L28.9961 17.1551L23.2685 25.7123L25.2367 18.5887L22.1938 17.2972Z" fill="#F89E1F"/>
<path d="M154.56 10.1127H153.143V14.5558H151.92V10.1127H150.503V9.008H154.56V10.1127ZM161 14.5558H159.776V11.2823L158.746 13.3211H157.663L156.633 11.2823V14.5558H155.409V9.008H156.633L158.203 11.9728L159.772 9.008H160.996V14.5558H161Z" fill="#F89E1F"/>
<g opacity="0.2">
<mask id="mask0_6001_797" style="mask-type:luminance" maskUnits="userSpaceOnUse" x="0" y="12" width="156" height="21">
<path d="M155.228 12.3668H0V32.978H155.228V12.3668Z" fill="white"/>
</mask>
<g mask="url(#mask0_6001_797)">
<mask id="mask1_6001_797" style="mask-type:luminance" maskUnits="userSpaceOnUse" x="0" y="12" width="156" height="21">
<path d="M155.035 12.5292H0.156975V32.8034H155.035V12.5292Z" fill="white"/>
</mask>
<g mask="url(#mask1_6001_797)">
<path d="M117.586 27.8445C118.693 27.7957 119.788 27.747 120.875 27.7064V19.9736H117.586V27.8445ZM99.9166 19.9777L97.4251 29.2334C98.3951 29.1441 99.3612 29.0588 100.319 28.9776L101.486 24.4939L102.235 27.8323L102.489 28.8029C103.499 28.7217 104.497 28.6445 105.491 28.5714L103.294 19.9777H99.9126H99.9166ZM109.162 28.3156C110.213 28.2465 111.255 28.1816 112.285 28.1247L114.809 19.9777H111.613L109.162 28.3156ZM117.586 16.3428H120.875V12.5251H117.586V16.3428ZM146.309 19.535C143.628 19.535 141.447 20.4447 139.768 22.2642C138.54 23.5923 137.768 25.3183 137.438 27.4302C138.597 27.4343 139.744 27.4465 140.871 27.4627C141.044 25.9519 141.595 24.7294 142.537 23.7953C143.568 22.7759 144.836 22.2642 146.345 22.2642C148.015 22.2642 149.372 22.9018 150.418 24.1812C151.086 24.9853 151.493 26.1874 151.65 27.7795C152.793 27.8323 153.924 27.8891 155.031 27.9501C154.773 25.5661 153.992 23.6491 152.664 22.2114C151.018 20.4285 148.901 19.5391 146.305 19.5391M130.897 20.197C130.257 20.6397 129.561 21.5535 128.804 22.9465V19.9777H125.846V27.5561C126.993 27.5277 128.128 27.5033 129.251 27.483C129.339 26.7682 129.48 26.0859 129.681 25.4361C129.923 24.6604 130.334 24.0553 130.905 23.6207C131.477 23.1861 132.125 22.9668 132.841 22.9668C133.646 22.9668 134.451 23.2064 135.252 23.6857L136.383 20.6072C135.24 19.8965 134.113 19.5391 133.002 19.5391C132.233 19.5391 131.529 19.7584 130.893 20.2011M7.8568 28.0638C7.22085 27.7226 6.4722 27.548 5.61085 27.548C4.8944 27.548 4.23832 27.6901 3.64665 27.9744C5.19225 28.5146 7.04778 29.071 9.26555 29.603C9.24945 29.5624 9.23335 29.5218 9.21725 29.4852C8.94355 28.8801 8.48873 28.409 7.85278 28.0638M17.3558 27.5521C15.9189 27.5521 14.6993 27.9866 13.6971 28.8557C13.2342 29.2578 12.8639 29.7492 12.5781 30.3219C13.2342 30.4518 13.9144 30.5737 14.6188 30.6996C14.7033 30.5615 14.7959 30.4315 14.9005 30.3178C15.5486 29.5746 16.3697 29.201 17.3558 29.201C18.3419 29.201 19.1389 29.5746 19.795 30.3219C20.0888 30.659 20.3142 31.0732 20.4752 31.5525C21.1715 31.6377 21.888 31.719 22.6286 31.7961C22.4032 30.7321 21.9564 29.8426 21.2802 29.14C20.2659 28.0841 18.9578 27.5521 17.3598 27.5521M0.156975 26.5489C0.728525 26.821 1.3846 27.1134 2.12922 27.4058V23.3486H0.156975V26.5489ZM37.2836 27.5521C35.8064 27.5521 34.611 28.2384 33.6893 29.6071C33.4638 28.9573 33.0734 28.4537 32.522 28.0922C31.9706 27.7308 31.2622 27.5521 30.4008 27.5521C29.628 27.5521 28.9357 27.7267 28.332 28.076C27.7242 28.4252 27.2412 28.8882 26.8749 29.4649V27.816H25.112V32.0358C25.7761 32.0967 26.4523 32.1495 27.1446 32.2023C27.1969 31.7271 27.2815 31.325 27.3982 31.0082C27.6115 30.4397 27.9536 30.0092 28.4205 29.7127C28.8915 29.4162 29.4067 29.27 29.9581 29.27C30.6866 29.27 31.2139 29.4893 31.5359 29.932C31.8579 30.3747 32.0189 31.0367 32.0189 31.922V32.5069C32.6669 32.5394 33.327 32.5678 33.9952 32.5962C34.0153 31.459 34.2809 30.6224 34.8002 30.0904C35.3395 29.5421 36.0197 29.2659 36.8368 29.2659C37.2916 29.2659 37.6861 29.3715 38.0201 29.5868C38.3542 29.802 38.5877 30.0823 38.7165 30.4315C38.8453 30.7808 38.9097 31.3535 38.9097 32.1495V32.7384C39.5537 32.7506 40.2098 32.7587 40.8699 32.7668V31.4834C40.8699 30.1432 40.5599 29.1482 39.9401 28.5024C39.3202 27.8567 38.4307 27.5358 37.2796 27.5358M88.1878 19.9777L91.1824 29.8426C92.1966 29.737 93.2029 29.6355 94.2011 29.538L91.5889 19.9777H88.1918H88.1878ZM48.5777 27.5521C46.9718 27.5521 45.6636 28.0963 44.6574 29.1888C43.8242 30.0904 43.3412 31.2966 43.1963 32.7993C46.5049 32.8074 50.0388 32.7587 53.8143 32.6409C53.6653 31.191 53.1944 30.0254 52.3894 29.1522C51.4033 28.0841 50.1314 27.548 48.5777 27.548M45.2933 32.5597C45.3577 31.5362 45.6999 30.7158 46.3157 30.1066C46.9315 29.4934 47.6922 29.1888 48.5979 29.1888C49.6001 29.1888 50.4131 29.5705 51.041 30.3381C51.4516 30.8336 51.6971 31.5728 51.7857 32.5597H45.2893H45.2933ZM77.6986 19.535C75.0179 19.535 72.8364 20.4447 71.158 22.2642C69.4755 24.0837 68.6343 26.6383 68.6343 29.932C68.6343 30.6143 68.6826 31.26 68.7591 31.8774C69.87 31.8002 70.997 31.719 72.1401 31.6337C72.0918 31.3047 72.0555 30.9717 72.0354 30.6143H83.7321C84.6498 30.5249 85.5796 30.4275 86.5174 30.3341C86.5254 30.0782 86.5294 29.8792 86.5294 29.7289C86.5294 26.4961 85.7084 23.9903 84.0621 22.2073C82.4159 20.4244 80.2988 19.535 77.7026 19.535M72.2166 27.8851C72.3252 26.1753 72.8968 24.8107 73.9231 23.7913C74.9536 22.7719 76.2214 22.2601 77.7348 22.2601C79.4052 22.2601 80.7616 22.8978 81.8081 24.1771C82.4883 25.0015 82.9029 26.2362 83.0518 27.881H72.2166V27.8851ZM62.2829 20.197C61.6429 20.6397 60.9465 21.5535 60.1898 22.9465V19.9777H57.2315V32.5191C58.3102 32.4744 59.405 32.4256 60.5199 32.3688V29.3065C60.5199 27.9054 60.701 26.6139 61.0673 25.4361C61.3088 24.6604 61.7193 24.0553 62.2909 23.6207C62.8624 23.1861 63.5105 22.9668 64.2269 22.9668C65.0319 22.9668 65.8369 23.2064 66.6379 23.6857L67.7689 20.6072C66.6218 19.8965 65.4988 19.5391 64.3879 19.5391C63.6192 19.5391 62.9188 19.7584 62.2788 20.2011" fill="#FAF6EF"/>
</g>
</g>
</g>
<g opacity="0.2">
<mask id="mask2_6001_797" style="mask-type:luminance" maskUnits="userSpaceOnUse" x="9" y="0" width="42" height="25">
<path d="M50.7231 0H9.5312V24.0431H50.7231V0Z" fill="white"/>
</mask>
<g mask="url(#mask2_6001_797)">
<mask id="mask3_6001_797" style="mask-type:luminance" maskUnits="userSpaceOnUse" x="9" y="0" width="42" height="24">
<path d="M50.4775 0.00811768H9.62781V23.9943H50.4775V0.00811768Z" fill="white"/>
</mask>
<g mask="url(#mask3_6001_797)">
<path d="M18.2091 14.0766L26.7663 4.77611L38.0644 15.3559C42.3511 17.3094 46.1024 20.2985 48.9923 23.9943L50.4775 22.382L26.5932 0.00811768L9.62781 18.4465C12.2078 16.5337 15.1018 15.0431 18.2091 14.0766Z" fill="#FAF6EF"/>
<path d="M26.4644 12.8176C26.5288 12.8176 26.5972 12.8216 26.6616 12.8216L27.849 8.59784L25.0838 12.8541C25.5427 12.8297 26.0015 12.8176 26.4644 12.8176Z" fill="#FAF6EF"/>
</g>
</g>
</g>
</g>
<defs>
<clipPath id="clip0_6001_797">
<rect width="161" height="40" fill="white"/>
</clipPath>
</defs>
</svg>
