<svg xmlns="http://www.w3.org/2000/svg" width="21" height="21" viewBox="0 0 21 21" fill="none">
  <g clip-path="url(#clip0_6087_293)">
    <path d="M20.9065 10.5C20.9065 4.97715 16.4293 0.5 10.9065 0.5C5.38361 0.5 0.906464 4.97715 0.906464 10.5C0.906464 15.4912 4.5633 19.6283 9.34396 20.3785V13.3906H6.8049V10.5H9.34396V8.29688C9.34396 5.79063 10.8369 4.40625 13.1211 4.40625C14.2149 4.40625 15.3596 4.60156 15.3596 4.60156V7.0625H14.0987C12.8565 7.0625 12.469 7.8334 12.469 8.625V10.5H15.2424L14.799 13.3906H12.469V20.3785C17.2496 19.6283 20.9065 15.4912 20.9065 10.5Z" fill="#000"/>
  </g>
  <defs>
    <clipPath id="clip0_6087_293">
      <rect width="20" height="20" fill="#000" transform="translate(0.906464 0.5)"/>
    </clipPath>
  </defs>
</svg>