<svg xmlns="http://www.w3.org/2000/svg" width="30" height="31" viewBox="0 0 30 31" fill="none">
  <!-- Outer pin -->
  <path d="M7.11113 13.3022C7.11113 18.7701 11.8946 23.2919 14.0119 25.0255L14.0127 25.0262C14.3163 25.2748 14.4682 25.3991 14.6944 25.4628C14.8705 25.5124 15.1294 25.5124 15.3054 25.4628C15.5319 25.3991 15.6842 25.2746 15.9883 25.0255C18.1056 23.2919 22.8889 18.7701 22.8889 13.3022C22.8889 11.2329 22.0578 9.24841 20.5783 7.78521C19.0989 6.32202 17.0923 5.5 15.0001 5.5C12.9078 5.5 10.9012 6.322 9.42173 7.7852C7.94228 9.24839 7.11113 11.2329 7.11113 13.3022Z" 
        stroke="#000" stroke-width="2" stroke-linecap="round" stroke-linejoin="round"/>
  
  <!-- Hollow center circle (moved slightly up) -->
  <circle cx="15" cy="12.5" r="2" stroke="#000" stroke-width="2" fill="none"/>
</svg>
