<svg xmlns="http://www.w3.org/2000/svg" width="30" height="31" viewBox="0 0 30 31" fill="none">
  <path d="M5.20074 13.2487C4.88316 12.955 5.05567 12.4241 5.48523 12.3731L11.5718 11.6515C11.7469 11.6308 11.8989 11.5204 11.9728 11.3604L14.54 5.79462C14.7212 5.40183 15.2796 5.40178 15.4607 5.79457L18.028 11.3604C18.1018 11.5205 18.2529 11.6308 18.4279 11.6515L24.5148 12.3731C24.9444 12.4241 25.1168 12.955 24.7992 13.2487L20.2995 17.4102C20.1701 17.5299 20.1123 17.7083 20.1467 17.8812L21.341 23.893C21.4253 24.3173 20.9738 24.6454 20.5963 24.4341L15.248 21.4403C15.0942 21.3542 14.9068 21.3541 14.753 21.4402L9.40418 24.4341C9.02672 24.6454 8.57472 24.3173 8.65902 23.893L9.85359 17.8812C9.88795 17.7082 9.83023 17.53 9.7008 17.4103L5.20074 13.2487Z" stroke="#000" stroke-width="2" stroke-linecap="round" stroke-linejoin="round"/>
</svg>