<svg xmlns="http://www.w3.org/2000/svg" width="21" height="21" viewBox="0 0 21 21" fill="none">
  <path d="M7.70831 5.66985C7.89127 5.67475 8.09411 5.68465 8.28709 6.11303C8.41507 6.39821 8.63065 6.92321 8.80626 7.35087C8.94291 7.68366 9.05536 7.95751 9.0835 8.01356C9.1478 8.14156 9.18738 8.28926 9.10329 8.46156C9.09337 8.48188 9.08401 8.50132 9.07499 8.52003C9.00753 8.66003 8.95953 8.75966 8.84609 8.88994C8.79944 8.94348 8.75085 9.00219 8.70244 9.06069C8.6173 9.16358 8.53271 9.2658 8.4602 9.33802C8.3316 9.46593 8.19799 9.60391 8.34638 9.85991C8.49486 10.1159 9.01427 10.9579 9.78103 11.6373C10.6054 12.3712 11.3222 12.6805 11.6845 12.8368C11.7549 12.8672 11.8119 12.8918 11.8537 12.9126C12.111 13.0406 12.2643 13.0209 12.4127 12.8486C12.5611 12.6762 13.0558 12.1001 13.229 11.8441C13.3971 11.5881 13.5702 11.6275 13.8077 11.7161C14.0451 11.8047 15.3115 12.4251 15.5687 12.5531C15.6196 12.5784 15.6671 12.6012 15.7112 12.6224C15.8902 12.7082 16.0118 12.7665 16.0634 12.8535C16.1277 12.9618 16.1277 13.4739 15.915 14.0746C15.6974 14.6752 14.6487 15.2513 14.1737 15.2956C14.1288 15.2999 14.084 15.3053 14.038 15.3108C13.6028 15.3635 13.0503 15.4303 11.082 14.6555C8.6566 13.7018 7.05558 11.3354 6.73189 10.857C6.70634 10.8192 6.68874 10.7932 6.67933 10.7806L6.67386 10.7733C6.52659 10.5762 5.62564 9.37067 5.62564 8.12685C5.62564 6.93682 6.21186 6.31726 6.47925 6.03467C6.4962 6.01676 6.51186 6.00021 6.52601 5.98494C6.76342 5.72895 7.0405 5.66495 7.21361 5.66495C7.38681 5.66495 7.55992 5.66495 7.70831 5.66985Z" fill="#000"/>
  <path fill-rule="evenodd" clip-rule="evenodd" d="M1.00654 19.8314C0.924721 20.1284 1.19521 20.4025 1.49326 20.3247L6.1006 19.1213C7.55495 19.909 9.19236 20.3275 10.8595 20.3275H10.8644C16.3504 20.3275 20.8224 15.8815 20.8224 10.4163C20.8224 7.76735 19.7884 5.27594 17.9086 3.40491C16.0289 1.53397 13.5307 0.5 10.8643 0.5C5.37843 0.5 0.906464 4.94605 0.906464 10.4114C0.905841 12.15 1.36476 13.8582 2.23715 15.3645L1.00654 19.8314ZM3.68327 15.7629C3.79009 15.3752 3.73673 14.9608 3.53517 14.6127C2.79501 13.3348 2.40594 11.8855 2.40646 10.4114C2.40646 5.78158 6.19973 2 10.8643 2C13.1342 2 15.2519 2.87698 16.8505 4.46805C18.4472 6.05737 19.3224 8.16611 19.3224 10.4163C19.3224 15.0459 15.5291 18.8275 10.8644 18.8275H10.8595C9.44297 18.8275 8.05099 18.4718 6.81502 17.8023C6.4805 17.6211 6.08962 17.5738 5.72152 17.67L2.95911 18.3915L3.68327 15.7629Z" fill="#000"/>
</svg>