<svg xmlns="http://www.w3.org/2000/svg" width="21" height="17" viewBox="0 0 21 17" fill="none">
<path fill-rule="evenodd" clip-rule="evenodd" d="M8.92789 4.85691C8.6962 4.71789 8.40763 4.71425 8.1725 4.84738C7.93737 4.98051 7.79202 5.22983 7.79202 5.50003V11.5C7.79202 11.7702 7.93737 12.0196 8.1725 12.1527C8.40763 12.2858 8.6962 12.2822 8.92789 12.1432L13.9279 9.14315C14.1538 9.00761 14.292 8.76348 14.292 8.50003C14.292 8.23658 14.1538 7.99245 13.9279 7.85691L8.92789 4.85691ZM12.0843 8.50003L9.29202 10.1754V6.82467L12.0843 8.50003Z" fill="#000"/>
<path fill-rule="evenodd" clip-rule="evenodd" d="M15.5727 1.14131C12.224 0.879329 8.86006 0.879328 5.51141 1.14131L3.27071 1.31661C1.90814 1.42321 0.793453 2.44442 0.568216 3.79246C0.0474517 6.90924 0.0474517 10.0908 0.568216 13.2076C0.793453 14.5556 1.90814 15.5768 3.27071 15.6834L5.51141 15.8587C8.86005 16.1207 12.224 16.1207 15.5727 15.8587L17.8134 15.6834C19.176 15.5768 20.2907 14.5556 20.5159 13.2076C21.0367 10.0908 21.0367 6.90924 20.5159 3.79246C20.2907 2.44442 19.176 1.42321 17.8134 1.31661L15.5727 1.14131ZM5.6284 2.63674C8.89918 2.38085 12.1849 2.38085 15.4557 2.63674L17.6964 2.81204C18.372 2.8649 18.9247 3.37125 19.0364 4.03966C19.5298 6.99277 19.5298 10.0073 19.0364 12.9604C18.9247 13.6288 18.372 14.1352 17.6964 14.188L15.4557 14.3633C12.1849 14.6192 8.89917 14.6192 5.6284 14.3633L3.3877 14.188C2.71209 14.1352 2.15939 13.6288 2.04771 12.9604C1.55429 10.0073 1.55429 6.99277 2.04771 4.03966C2.15939 3.37125 2.71209 2.8649 3.3877 2.81204L5.6284 2.63674Z" fill="#000"/>
</svg>